<svg width="18" height="18" viewBox="0 0 18 18" fill="none" xmlns="http://www.w3.org/2000/svg">
<path d="M14 17C14 15.6739 13.4732 14.4021 12.5355 13.4645C11.5979 12.5268 10.3261 12 9 12C7.67392 12 6.40215 12.5268 5.46447 13.4645C4.52678 14.4021 4 15.6739 4 17H14Z" fill="#141414"/>
<path d="M14.5 11.5L16.5 9.5" stroke="#141414" stroke-width="2" stroke-linecap="round"/>
<path d="M2 17H16" stroke="#141414" stroke-width="2" stroke-linecap="square"/>
<path d="M1.5 9.5L3.5 11.5" stroke="#141414" stroke-width="2" stroke-linecap="round"/>
<path d="M8.99997 0.999999L9.70697 0.292998L8.99997 -0.414001L8.29297 0.292998L8.99997 0.999999ZM7.99997 9.5C7.99997 9.76521 8.10533 10.0196 8.29286 10.2071C8.4804 10.3946 8.73475 10.5 8.99997 10.5C9.26519 10.5 9.51954 10.3946 9.70708 10.2071C9.89461 10.0196 9.99997 9.76521 9.99997 9.5H7.99997ZM12.707 3.293L9.70697 0.292998L8.29297 1.707L11.293 4.707L12.707 3.293ZM8.29297 0.292998L5.29297 3.293L6.70697 4.707L9.70697 1.707L8.29297 0.292998ZM7.99997 0.999999V9.5H9.99997V0.999999H7.99997Z" fill="#141414"/>
</svg>
